<?xml version="1.0" ?><svg width="24" height="24" viewBox="0 0 24 24" xmlns="http://www.w3.org/2000/svg" xmlns:xlink="http://www.w3.org/1999/xlink"><svg viewBox="0 0 24 24" width="24" height="24" id="boundries" xmlns="http://www.w3.org/2000/svg"><path d="M24 10V7h-1V5l-2-2-2 2v2h-2V5l-2-2-2 2v2h-1.164l.237-1.768L10.353 3 8.107 4.71 7.801 7H5V5L3 3 1 5v2H0v3h1v4H0v3h1v4h4v-4h1.465L6 20.479 9.965 21l.535-4H13v4h4v-4h2v4h4v-4h1v-3h-1v-4h1zM5 14v-4h2.4l-.534 4H5zm5.9 0l.535-4H13v4h-2.1zm8.1 0h-2v-4h2v4z" fill="#F47920"/><g fill="#FFF"><path opacity=".2" d="M19 5v16h2V3z"/><path opacity=".1" d="M21 3l2 2v16h-2z"/><path opacity=".2" d="M13 5v16h2V3z"/><path opacity=".1" d="M15 3l2 2v16h-2z"/><path opacity=".2" d="M1 5v16h2V3z"/><path opacity=".1" d="M3 3l2 2v16H3z"/><path opacity=".2" d="M10.353 3L8.107 4.71 6 20.48l1.999.262z"/><path opacity=".1" d="M10.353 3l1.72 2.232L9.965 21l-1.982-.26z"/></g></svg></svg>