<?xml version="1.0" ?><svg enable-background="new 0 0 24 24" id="Layer_1" version="1.1" viewBox="0 0 24 24" xml:space="preserve" xmlns="http://www.w3.org/2000/svg" xmlns:xlink="http://www.w3.org/1999/xlink"><g><path d="M24,10V7h-1V5l-2-2l-2,2v2h-2V5l-2-2l-2,2v2h-1.1636963l0.2363281-1.7682495   L10.3533936,3L8.1072998,4.7103271L7.8013306,7H5V5L3,3L1,5v2H0v3h1v4H0v3h1v4h4v-4h1.4649048L6,20.4785767L9.965332,21   l0.5345459-4H13v4h4v-4h2v4h4v-4h1v-3h-1v-4H24z M5,14v-4h2.4003906l-0.5346069,4H5z M10.9008179,14l0.5345459-4H13v4H10.9008179z    M19,14h-2v-4h2V14z" fill="#F47920" id="base_color_18_"/><g id="light_foil_14_"><polygon fill="#FFFFFF" opacity="0.2" points="19,5 19,21 21,21 21,3   "/><polygon fill="#FFFFFF" opacity="0.1" points="21,3 23,5 23,21 21,21   "/><polygon fill="#FFFFFF" opacity="0.2" points="13,5 13,21 15,21 15,3   "/><polygon fill="#FFFFFF" opacity="0.1" points="15,3 17,5 17,21 15,21   "/><polygon fill="#FFFFFF" opacity="0.2" points="1,5 1,21 3,21 3,3   "/><polygon fill="#FFFFFF" opacity="0.1" points="3,3 5,5 5,21 3,21   "/><polygon fill="#FFFFFF" opacity="0.2" points="10.3533936,3 8.1072998,4.7103271 6,20.4785767 7.9988403,20.741394   "/><polygon fill="#FFFFFF" opacity="0.1" points="10.3533735,3 12.0726147,5.2317433 9.9653101,21 7.982655,20.7392883   "/></g></g><g/><g/><g/><g/><g/><g/><g/><g/><g/><g/><g/><g/><g/><g/><g/></svg>