<?xml version="1.0" ?><svg enable-background="new 0 0 64 64" version="1.1" viewBox="0 0 64 64" xml:space="preserve" xmlns="http://www.w3.org/2000/svg" xmlns:xlink="http://www.w3.org/1999/xlink"><g id="Grid"/><g id="row_3"><g id="my_x5F_bank"><rect fill="#263238" height="46" width="46" x="9" y="7"/><g><polygon fill="#01579B" points="49,23 49,16 51,16 51,11 13,11 13,49 51,49 51,44 49,44 49,37 51,37 51,23    "/><rect fill="#01579B" height="7" width="2" x="51" y="37"/><rect fill="#01579B" height="7" width="2" x="51" y="16"/></g><path d="M22.8,20.8L32,30H19c0,3.3,1.3,6.7,3.8,9.2c5.1,5.1,13.3,5.1,18.4,0s5.1-13.3,0-18.4S27.9,15.7,22.8,20.8z    " fill="#F44336"/><rect fill="#263238" height="1" transform="matrix(0.7071 -0.7071 0.7071 0.7071 -8.8406 32.6569)" width="28.3" x="20.9" y="26.5"/><circle cx="32" cy="30" fill="#FFECB3" r="7"/><g><rect fill="#FFECB3" height="14" width="16" x="13" y="43"/><rect fill="#01579B" height="6" width="4" x="18" y="49"/></g><g><rect fill="#FFECB3" height="37" width="14" x="25" y="20"/><rect fill="#01579B" height="6" width="2" x="31" y="33"/><rect fill="#01579B" height="6" width="2" x="31" y="22"/><rect fill="#01579B" height="6" width="2" x="27" y="22"/><rect fill="#01579B" height="6" width="2" x="35" y="22"/><rect fill="#01579B" height="6" width="2" x="31" y="41"/><rect fill="#01579B" height="6" width="2" x="31" y="49"/></g><g><rect fill="#FFC107" height="10" width="10" x="15" y="33"/><rect fill="#263238" height="6" width="4" x="18" y="35"/></g><g><rect fill="#FFC107" height="18" width="16" x="35" y="39"/><rect fill="#263238" height="6" width="4" x="38" y="41"/><rect fill="#263238" height="6" width="4" x="38" y="49"/><rect fill="#263238" height="6" width="4" x="44" y="41"/><rect fill="#263238" height="6" width="4" x="44" y="49"/></g></g></g><g id="row_2"/><g id="row_1"/></svg>