<?xml version="1.0" ?><!DOCTYPE svg  PUBLIC '-//W3C//DTD SVG 1.1//EN'  'http://www.w3.org/Graphics/SVG/1.1/DTD/svg11.dtd'><svg enable-background="new 0 0 512 512" height="512px" id="Calque_1" version="1.1" viewBox="0 0 512 512" width="512px" xml:space="preserve" xmlns="http://www.w3.org/2000/svg" xmlns:xlink="http://www.w3.org/1999/xlink"><g><path d="M481.05,245.46c0-0.02,0-0.04-0.01-0.06v-0.07c-2.24-21.56-20.24-37.8-41.94-37.8h-30.13v-96.57h27.311c2.76,0,5-2.24,5-5   V59.93c0-20.58-16.74-37.32-37.311-37.32H140.35c-20.58,0-37.32,16.74-37.32,37.32v147.6H72.9c-21.7,0-39.7,16.25-41.93,37.8   c-0.01,0.03-0.01,0.05-0.01,0.08c-0.01,0.01-0.01,0.03-0.01,0.05c-0.14,1.41-0.22,2.84-0.22,4.25v197.51   c0,23.25,18.92,42.17,42.17,42.17h366.2c23.25,0,42.17-18.92,42.17-42.17V249.71C481.269,248.32,481.2,246.89,481.05,245.46z    M439.099,217.53c15.25,0,28.511,11.1,31.521,25.79l-61.65,35.24v-61.03H439.099z M403.969,32.61   c15.061,0,27.311,12.25,27.311,27.32v41.03H177.66V59.93c0-10.78-4.6-20.5-11.93-27.32H403.969z M113.03,59.93   c0-15.07,12.26-27.32,27.32-27.32s27.31,12.25,27.31,27.32v46.03c0,2.76,2.24,5,5,5h226.31v173.31L256,365.97l-142.97-81.7V59.93z    M72.9,217.53h30.13v61.03l-61.65-35.24C44.39,228.63,57.66,217.53,72.9,217.53z M471.269,447.22c0,17.74-14.43,32.17-32.17,32.17   H72.9c-17.74,0-32.17-14.43-32.17-32.17V254.47l212.78,121.6c0.2,0.109,0.4,0.21,0.6,0.29c0.61,0.25,1.25,0.37,1.89,0.37   c0.64,0,1.28-0.12,1.89-0.37c0.2-0.08,0.4-0.181,0.601-0.29l212.779-121.6V447.22z"/><path d="M431.28,59.93v41.03H177.66V59.93c0-10.78-4.6-20.5-11.93-27.32h238.24   C419.03,32.61,431.28,44.86,431.28,59.93z" fill="#CECCCE"/><path d="M431.28,59.93v13.3c0-15.07-12.25-27.32-27.31-27.32H174.92c-2.07-5.09-5.23-9.62-9.19-13.3h238.24   C419.03,32.61,431.28,44.86,431.28,59.93z" opacity="0.1"/><path d="M470.62,243.32l-61.65,35.24v-61.03h30.13C454.349,217.53,467.61,228.63,470.62,243.32z" fill="#F9D48A"/><path d="M172.66,110.96c-2.76,0-5-2.24-5-5V59.93c0-15.07-12.25-27.32-27.31-27.32s-27.32,12.25-27.32,27.32V284.27   L256,365.97l142.97-81.7V110.96H172.66z M366.04,285.42H145.96c-2.76,0-5-2.24-5-5s2.24-5,5-5h220.08c2.76,0,5,2.24,5,5   S368.8,285.42,366.04,285.42z M366.04,251.42H145.96c-2.76,0-5-2.24-5-5c0-2.76,2.24-5,5-5h220.08c2.76,0,5,2.24,5,5   C371.04,249.18,368.8,251.42,366.04,251.42z M366.04,217.42H145.96c-2.76,0-5-2.24-5-5c0-2.76,2.24-5,5-5h220.08c2.76,0,5,2.24,5,5   C371.04,215.18,368.8,217.42,366.04,217.42z M366.04,183.42H145.96c-2.76,0-5-2.24-5-5c0-2.76,2.24-5,5-5h220.08c2.76,0,5,2.24,5,5   C371.04,181.18,368.8,183.42,366.04,183.42z M366.04,149.42H145.96c-2.76,0-5-2.23-5-5c0-2.76,2.24-5,5-5h220.08c2.76,0,5,2.24,5,5   C371.04,147.19,368.8,149.42,366.04,149.42z" fill="#F2F2F2"/><path d="M103.03,217.53v61.03l-61.65-35.24c3.01-14.69,16.28-25.79,31.52-25.79H103.03z" fill="#F9D48A"/><path d="M258.49,376.071c-0.2,0.109-0.4,0.21-0.601,0.29c-0.609,0.25-1.25,0.37-1.89,0.37   c-0.64,0-1.28-0.12-1.89-0.37c-0.2-0.08-0.4-0.181-0.6-0.29L40.73,254.47v192.75c0,17.74,14.43,32.17,32.17,32.17h366.2   c17.74,0,32.17-14.43,32.17-32.17V254.47L258.49,376.071z M427.87,448.17H304.21c-2.76,0-5-2.229-5-5c0-2.76,2.24-5,5-5h123.66   c2.76,0,5,2.24,5,5C432.87,445.941,430.63,448.17,427.87,448.17z" fill="#F6B92C"/><path d="M371.04,144.42c0,2.77-2.24,5-5,5H145.96c-2.76,0-5-2.23-5-5c0-2.76,2.24-5,5-5h220.08   C368.8,139.42,371.04,141.66,371.04,144.42z"/><path d="M371.04,178.42c0,2.76-2.24,5-5,5H145.96c-2.76,0-5-2.24-5-5c0-2.76,2.24-5,5-5h220.08   C368.8,173.42,371.04,175.66,371.04,178.42z"/><path d="M371.04,212.42c0,2.76-2.24,5-5,5H145.96c-2.76,0-5-2.24-5-5c0-2.76,2.24-5,5-5h220.08   C368.8,207.42,371.04,209.66,371.04,212.42z"/><path d="M371.04,246.42c0,2.76-2.24,5-5,5H145.96c-2.76,0-5-2.24-5-5c0-2.76,2.24-5,5-5h220.08   C368.8,241.42,371.04,243.66,371.04,246.42z"/><path d="M371.04,280.42c0,2.76-2.24,5-5,5H145.96c-2.76,0-5-2.24-5-5s2.24-5,5-5h220.08C368.8,275.42,371.04,277.66,371.04,280.42z   "/><path d="M432.87,443.17c0,2.771-2.24,5-5,5H304.21c-2.76,0-5-2.229-5-5c0-2.76,2.24-5,5-5h123.66   C430.63,438.17,432.87,440.41,432.87,443.17z"/><g opacity="0.1"><path d="M465.73,231.809l-56.76,32.441v14.309l61.65-35.239C469.76,239.13,468.07,235.24,465.73,231.809z"/><polygon points="113.03,269.959 113.03,284.27 255.999,365.969 398.97,284.27 398.97,269.959 255.999,351.66   "/><path d="M41.38,243.32l61.65,35.239V264.25l-56.761-32.441C43.929,235.24,42.24,239.13,41.38,243.32z"/></g></g></svg>