<?xml version="1.0" ?><!DOCTYPE svg  PUBLIC '-//W3C//DTD SVG 1.1//EN'  'http://www.w3.org/Graphics/SVG/1.1/DTD/svg11.dtd'><svg height="135px" id="Layer_1" style="enable-background:new 0 0 135 135;" version="1.1" viewBox="0 0 135 135" width="135px" xml:space="preserve" xmlns="http://www.w3.org/2000/svg" xmlns:xlink="http://www.w3.org/1999/xlink"><style type="text/css">
<![CDATA[
	.st0{fill:#465652;}
	.st1{fill:#AAB9BA;}
	.st2{fill:#47C67B;}
	.st3{fill:#AAC8D1;}
	.st4{fill:none;stroke:#E83834;stroke-width:6;stroke-linecap:round;stroke-linejoin:round;stroke-miterlimit:10;}
	.st5{fill:#7BC67B;}
	.st6{fill:#7BC7FF;}
	.st7{fill:#7C34C1;}
	.st8{fill:#7C8D96;}
	.st9{fill:#AD2707;}
	.st10{fill:#ADB8BC;}
	.st11{fill:#107510;}
	.st12{fill:#7FE5D8;}
	.st13{fill:#AF4AD1;}
	.st14{fill:#E02B7E;}
	.st15{fill:#E04038;}
	.st16{fill:#AFD7DD;}
	.st17{fill:#E0A010;}
	.st18{fill:#E0D5A4;}
	.st19{fill:#12B2B2;}
	.st20{fill:#12D66B;}
	.st21{fill:#E1A9FF;}
	.st22{fill:#1362A8;}
	.st23{fill:#E2378D;}
	.st24{fill:#E29C37;}
	.st25{fill:#E2B90E;}
	.st26{fill:#E2BF91;}
	.st27{fill:#E2CBAA;}
	.st28{fill:#14A594;}
	.st29{fill:#E4E9ED;}
	.st30{fill:#4A5D60;}
	.st31{fill:#E5B076;}
	.st32{fill:#E5B1C4;}
	.st33{fill:#E5E4C3;}
	.st34{fill:#4B6466;}
	.st35{fill:#E6FF2E;}
	.st36{fill:#18AA67;}
	.st37{fill:#E86207;}
	.st38{fill:#E8A113;}
	.st39{fill:#E8B5A6;}
	.st40{fill:#E8E8ED;}
	.st41{fill:#4E5154;}
	.st42{fill:#E9F1F4;}
	.st43{fill:#4F4B48;}
	.st44{fill:#4F74E8;}
	.st45{fill:#808E93;}
	.st46{fill:#80949B;}
	.st47{fill:#80EDAC;}
	.st48{fill:#B122E0;}
	.st49{fill:#B2C4CC;}
	.st50{fill:#83D839;}
	.st51{fill:#B3C6C6;}
	.st52{fill:none;stroke:#33363A;stroke-width:3;stroke-linecap:round;stroke-linejoin:round;stroke-miterlimit:10;}
	.st53{fill:#1A8E1C;}
	.st54{fill:#1A93D6;}
	.st55{fill:#B50B0B;}
	.st56{fill:#1AD88F;}
	.st57{fill:#B5DAF4;}
	.st58{fill:#EA7B1F;}
	.st59{fill:#EA81BD;}
	.st60{fill:#87B8D6;}
	.st61{fill:#87C3F4;}
	.st62{fill:#EAC79D;}
	.st63{fill:#EADF11;}
	.st64{fill:#EAE4C5;}
	.st65{fill:#B78094;}
	.st66{fill:#8844D8;}
	.st67{fill:#EBF4F7;}
	.st68{fill:#893015;}
	.st69{fill:#89410B;}
	.st70{fill:#899BA3;}
	.st71{fill:#EDE3B9;}
	.st72{enable-background:new    ;}
	.st73{fill:#50FF9F;}
	.st74{fill:#EEDCF4;}
	.st75{fill:#EFA37D;}
	.st76{fill:#EFA3CC;}
	.st77{fill:#EFC99A;}
	.st78{fill:#54AF79;}
	.st79{fill:#BA503A;}
	.st80{fill:#BA8663;}
	.st81{fill:#8B4FE0;}
	.st82{fill:#58ED9B;}
	.st83{fill:#BC7DFF;}
	.st84{fill:#8D9AA3;}
	.st85{fill:#BCCAD3;}
	.st86{fill:#8DE4FF;}
	.st87{fill:#20B518;}
	.st88{fill:#BF44F2;}
	.st89{fill:#21CEA1;}
	.st90{fill:#BFDAE0;}
	.st91{fill:#F0FBFC;}
	.st92{fill:#F2D9A7;}
	.st93{fill:#F2EAC9;}
	.st94{fill:#24D1AF;}
	.st95{fill:#25931C;}
	.st96{fill:#F4C4B3;}
	.st97{fill:#F4D3A2;}
	.st98{fill:#F4D647;}
	.st99{fill:#F4D7B8;}
	.st100{fill:#F4EC8E;}
	.st101{fill:#5B524D;}
	.st102{fill:#F77819;}
	.st103{fill:#F79AE1;}
	.st104{fill:#5E707A;}
	.st105{fill:#F93585;}
	.st106{fill:#F95D5D;}
	.st107{fill:#F9C19B;}
	.st108{fill:#F9CB58;}
	.st109{fill:#F9D2B2;}
	.st110{fill:#F9F07D;}
	.st111{fill:#F9F1D2;}
	.st112{fill:#F9F4B7;}
	.st113{fill:#F9F9E4;}
	.st114{fill:#5F1DAA;}
	.st115{fill:#5F9AD6;}
	.st116{fill:#C0C0C4;}
	.st117{fill:#91EA57;}
	.st118{fill:#C12727;}
	.st119{fill:#C191A0;}
	.st120{fill:#923BB7;}
	.st121{fill:#93A0A3;}
	.st122{fill:#93F9EA;}
	.st123{fill:#93FF5A;}
	.st124{fill:#C4833D;}
	.st125{fill:#95A2A5;}
	.st126{fill:#965514;}
	.st127{fill:#96562C;}
	.st128{fill:#2AF42F;}
	.st129{fill:#C5D7DD;}
	.st130{fill:#C68510;}
	.st131{fill:#C6A86D;}
	.st132{fill:#C6BB8D;}
	.st133{fill:#2C9DCE;}
	.st134{fill:#FBFCF2;}
	.st135{fill:#FC70B0;}
	.st136{fill:#FCE6C8;}
	.st137{fill:#FCF7E3;}
	.st138{fill:#C90D6B;}
	.st139{fill:#FDFEFF;}
	.st140{fill:#FDFFDC;}
	.st141{fill:#FF1A1A;}
	.st142{fill:#FF5252;}
	.st143{fill:#FF5B00;}
	.st144{fill:#FF6155;}
	.st145{fill:#FF630D;}
	.st146{fill:#FF6666;}
	.st147{fill:#FF7676;}
	.st148{fill:#FF7900;}
	.st149{fill:#FF860D;}
	.st150{fill:#FF8B00;}
	.st151{fill:#FF8F8F;}
	.st152{fill:#FF900B;}
	.st153{fill:#FF908A;}
	.st154{fill:#FF960B;}
	.st155{fill:#FF9C0D;}
	.st156{fill:#FFA9D4;}
	.st157{fill:#FFAA00;}
	.st158{fill:#FFAD40;}
	.st159{fill:#FFAF10;}
	.st160{fill:#FFB000;}
	.st161{fill:#FFBE08;}
	.st162{fill:#FFBF31;}
	.st163{fill:#FFC200;}
	.st164{fill:#FFCAE8;}
	.st165{fill:#FFCCF5;}
	.st166{fill:#FFD00B;}
	.st167{fill:#FFD039;}
	.st168{fill:#FFD400;}
	.st169{fill:#FFD833;}
	.st170{fill:#FFDB80;}
	.st171{fill:#FFDDD2;}
	.st172{fill:#FFE6D4;}
	.st173{fill:#FFE6EB;}
	.st174{fill:#FFE98D;}
	.st175{fill:#FFECD2;}
	.st176{fill:#FFF1D9;}
	.st177{fill:#FFF24D;}
	.st178{fill:#FFF3C2;}
	.st179{fill:#FFF4C7;}
	.st180{fill:#FFF800;}
	.st181{fill:#FFF80D;}
	.st182{fill:#FFF9DE;}
	.st183{fill:#FFFBD7;}
	.st184{fill:#FFFBEB;}
	.st185{fill:#FFFCC0;}
	.st186{fill:#FFFCDC;}
	.st187{fill:#FFFFFA;}
	.st188{fill:#FFFFFF;}
	.st189{fill:#63797F;}
	.st190{fill:#65E529;}
	.st191{fill:#66310E;}
	.st192{fill:#663C17;}
	.st193{fill:#9A5AE5;}
	.st194{fill:#CA30EF;}
	.st195{fill:#6892FC;}
	.st196{fill:#9CFFC4;}
	.st197{fill:#CC4306;}
	.st198{fill:#CC549E;}
	.st199{fill:#9E3256;}
	.st200{fill:#CDFFBB;}
	.st201{fill:#CE86AF;}
	.st202{fill:#CED9DD;}
	
		.st203{fill:none;stroke:#33363A;stroke-width:3;stroke-linecap:round;stroke-linejoin:round;stroke-miterlimit:10;stroke-dasharray:6;}
	.st204{fill:#CFE1E2;}
	.st205{fill:#33363A;}
	.st206{fill:#34C166;}
	.st207{fill:#364B5B;}
	.st208{fill:#3662CE;}
	.st209{fill:#36C6FF;}
	.st210{fill:#6ADB9A;}
	.st211{fill:#6D5C4D;}
	.st212{fill:#6EBDF9;}
	.st213{fill:#0031FF;}
	.st214{fill:#0062FF;}
	.st215{fill:#0068FF;}
	.st216{fill:#0086FF;}
	.st217{fill:#009BE8;}
	.st218{fill:#00AAFF;}
	.st219{fill:#D271FF;}
	.st220{fill:#D363A9;}
	.st221{fill:#D3964C;}
	.st222{fill:#D3DFE2;}
	.st223{fill:#D3E0E2;}
	.st224{fill:#D3EFF4;}
	.st225{fill:#063B66;}
	.st226{fill:#D60909;}
	.st227{fill:#D61D1D;}
	.st228{fill:#D7F0FF;}
	.st229{fill:#09B285;}
	.st230{fill:#D8D593;}
	.st231{fill:#D8E2EA;}
	.st232{fill:#D8E5EA;}
	.st233{fill:#3E5054;}
	.st234{fill:#D988FF;}
	.st235{fill:#D9E7E8;}
	.st236{fill:#702252;}
	.st237{fill:#70D3E0;}
	.st238{fill:#A02FF2;}
	.st239{fill:#A2F255;}
	.st240{fill:#A35616;}
	.st241{fill:#A3CCCC;}
	.st242{fill:#0A6ADD;}
	.st243{fill:#A5145D;}
	.st244{fill:#A57555;}
	.st245{fill:#77D6FC;}
	.st246{fill:#7815CE;}
	.st247{fill:#A7BBC1;}
	.st248{fill:#DBD279;}
	.st249{fill:#0D5C9E;}
	.st250{fill:#A83C11;}
	.st251{fill:#A8633D;}
	.st252{fill:#A8A3E5;}
	.st253{fill:#DCE6EA;}
	.st254{fill:#DCE7EA;}
	.st255{fill:#A962E8;}
	.st256{fill:#DD2466;}
	.st257{fill:#DDC38A;}
	.st258{fill:#DDD2B1;}
	.st259{fill:#DFE7E8;}
	.st260{fill:#42B1E8;}
	.st261{fill:#436377;}
	.st262{fill:#43B530;}
]]>
</style><g><g><g><g><path class="st20" d="M5.49,67.499c0,34.248,27.764,62.011,62.008,62.011c34.248,0,62.012-27.763,62.012-62.011      c0-34.245-27.764-62.009-62.012-62.009C33.254,5.49,5.49,33.254,5.49,67.499z"/></g><g><path class="st229" d="M129.51,67.499c0-34.245-27.764-62.009-62.012-62.009C33.254,5.49,5.49,33.254,5.49,67.499"/></g><g><path class="st205" d="M5.49,68.999c-0.828,0-1.5-0.672-1.5-1.5C3.99,32.48,32.479,3.99,67.498,3.99c0.828,0,1.5,0.672,1.5,1.5      s-0.672,1.5-1.5,1.5C34.134,6.99,6.99,34.135,6.99,67.499C6.99,68.327,6.318,68.999,5.49,68.999z"/></g><g><path class="st205" d="M67.498,131.01c-0.828,0-1.5-0.672-1.5-1.5s0.672-1.5,1.5-1.5c33.366,0,60.512-27.145,60.512-60.511      c0-0.828,0.672-1.5,1.5-1.5s1.5,0.672,1.5,1.5C131.01,102.519,102.519,131.01,67.498,131.01z"/></g></g><g><g><path class="st89" d="M19.828,67.499c0,26.329,21.346,47.67,47.67,47.67c26.33,0,47.67-21.341,47.67-47.67      c0-26.325-21.34-47.669-47.67-47.669C41.174,19.83,19.828,41.174,19.828,67.499z"/></g><g><path class="st73" d="M19.828,67.499c0,26.329,21.346,47.67,47.67,47.67c26.33,0,47.67-21.341,47.67-47.67H19.828z"/></g><g><path class="st216" d="M114.916,72.43H57.152V20.969c-4.811,1.066-9.346,2.857-13.488,5.256v82.551      c4.143,2.397,8.678,4.189,13.488,5.254V85.918h54.324C113.248,81.695,114.43,77.166,114.916,72.43z"/></g><g><path class="st205" d="M57.152,115.529c-0.108,0-0.217-0.012-0.324-0.035c-4.888-1.082-9.569-2.905-13.915-5.421      c-0.464-0.268-0.749-0.763-0.749-1.298V26.225c0-0.535,0.285-1.03,0.748-1.298c4.342-2.514,9.023-4.338,13.916-5.423      c0.44-0.097,0.907,0.01,1.263,0.295s0.562,0.715,0.562,1.17V70.93h56.264c0.425,0,0.829,0.18,1.113,0.495      s0.422,0.735,0.379,1.158c-0.492,4.795-1.687,9.477-3.549,13.915c-0.233,0.558-0.778,0.92-1.383,0.92H58.652v26.611      c0,0.455-0.206,0.885-0.561,1.17C57.822,115.415,57.49,115.529,57.152,115.529z M45.164,107.901      c3.317,1.838,6.835,3.254,10.488,4.221V85.918c0-0.828,0.672-1.5,1.5-1.5h53.315c1.331-3.376,2.255-6.893,2.756-10.488H57.152      c-0.828,0-1.5-0.672-1.5-1.5V22.877c-3.656,0.969-7.174,2.384-10.488,4.222V107.901z"/></g><g><path class="st205" d="M115.168,68.999c-0.828,0-1.5-0.672-1.5-1.5c0-25.458-20.712-46.169-46.17-46.169      c-0.828,0-1.5-0.672-1.5-1.5s0.672-1.5,1.5-1.5c27.112,0,49.17,22.057,49.17,49.169      C116.668,68.327,115.996,68.999,115.168,68.999z"/></g><g><path class="st205" d="M67.498,116.669c-27.112,0-49.17-22.058-49.17-49.17c0-0.828,0.672-1.5,1.5-1.5s1.5,0.672,1.5,1.5      c0,25.458,20.712,46.17,46.17,46.17c0.828,0,1.5,0.672,1.5,1.5S68.326,116.669,67.498,116.669z"/></g><g><g><path class="st205" d="M64.497,21.423c-0.786,0-1.447-0.612-1.496-1.407c-0.052-0.827,0.577-1.539,1.404-1.59       c1.023-0.063,2.064-0.096,3.093-0.096c0.828,0,1.5,0.672,1.5,1.5s-0.672,1.5-1.5,1.5c-0.967,0-1.945,0.03-2.907,0.09       C64.56,21.422,64.528,21.423,64.497,21.423z"/></g><g><path class="st205" d="M20.725,59.765c-0.096,0-0.193-0.009-0.291-0.028c-0.812-0.159-1.343-0.947-1.183-1.761       c0.413-2.104,0.971-4.202,1.658-6.235c0.266-0.784,1.115-1.206,1.901-0.94c0.785,0.266,1.206,1.116,0.94,1.901       c-0.646,1.908-1.169,3.877-1.557,5.853C22.055,59.269,21.427,59.765,20.725,59.765z M24.719,47.943       c-0.223,0-0.449-0.05-0.662-0.154c-0.743-0.366-1.049-1.266-0.683-2.009c0.947-1.921,2.032-3.8,3.227-5.585       c0.461-0.689,1.396-0.871,2.081-0.413c0.688,0.461,0.873,1.393,0.413,2.081c-1.121,1.676-2.141,3.44-3.029,5.243       C25.804,47.637,25.271,47.943,24.719,47.943z M31.655,37.571c-0.351,0-0.704-0.123-0.988-0.373       c-0.623-0.546-0.685-1.494-0.138-2.116c1.417-1.614,2.952-3.148,4.562-4.561c0.625-0.547,1.57-0.482,2.117,0.139       c0.546,0.623,0.483,1.571-0.139,2.117c-1.513,1.326-2.954,2.767-4.286,4.283C32.487,37.398,32.072,37.571,31.655,37.571z        M41.042,29.341c-0.483,0-0.959-0.233-1.248-0.667c-0.46-0.688-0.275-1.62,0.414-2.08c1.786-1.193,3.666-2.279,5.589-3.227       c0.743-0.364,1.643-0.062,2.009,0.683c0.366,0.743,0.061,1.643-0.683,2.009c-1.806,0.89-3.571,1.908-5.249,3.029       C41.618,29.259,41.329,29.341,41.042,29.341z M52.243,23.823c-0.626,0-1.21-0.395-1.421-1.021       c-0.266-0.784,0.156-1.636,0.941-1.9c2.032-0.687,4.131-1.243,6.239-1.655c0.812-0.163,1.602,0.37,1.76,1.184       c0.159,0.813-0.371,1.602-1.184,1.76c-1.979,0.388-3.949,0.91-5.856,1.554C52.563,23.798,52.402,23.823,52.243,23.823z"/></g><g><path class="st205" d="M19.828,68.999c-0.828,0-1.5-0.672-1.5-1.5c0-1.029,0.032-2.069,0.096-3.092       c0.051-0.826,0.777-1.456,1.59-1.404c0.827,0.052,1.456,0.763,1.404,1.59c-0.06,0.961-0.09,1.938-0.09,2.906       C21.328,68.327,20.656,68.999,19.828,68.999z"/></g></g><g><g><path class="st205" d="M67.498,116.669c-0.828,0-1.5-0.672-1.5-1.5s0.672-1.5,1.5-1.5c0.967,0,1.945-0.03,2.907-0.09       c0.815-0.052,1.539,0.578,1.59,1.404c0.052,0.827-0.577,1.539-1.404,1.59C69.567,116.637,68.526,116.669,67.498,116.669z"/></g><g><path class="st205" d="M76.704,115.78c-0.703,0-1.33-0.496-1.47-1.212c-0.159-0.813,0.371-1.602,1.184-1.76       c1.976-0.387,3.946-0.909,5.857-1.554c0.79-0.26,1.637,0.158,1.901,0.942c0.264,0.785-0.158,1.637-0.942,1.901       c-2.036,0.686-4.136,1.242-6.24,1.653C76.896,115.771,76.8,115.78,76.704,115.78z M88.54,111.787       c-0.553,0-1.085-0.307-1.347-0.837c-0.366-0.743-0.061-1.643,0.683-2.009c1.807-0.89,3.572-1.909,5.247-3.029       c0.688-0.46,1.62-0.276,2.081,0.413c0.46,0.689,0.275,1.62-0.413,2.081c-1.784,1.192-3.665,2.278-5.589,3.227       C88.989,111.737,88.763,111.787,88.54,111.787z M98.919,104.851c-0.417,0-0.832-0.173-1.129-0.511       c-0.546-0.623-0.483-1.571,0.139-2.117c1.513-1.326,2.954-2.767,4.286-4.283c0.545-0.622,1.494-0.686,2.116-0.138       c0.623,0.546,0.685,1.494,0.138,2.116c-1.417,1.614-2.952,3.148-4.562,4.561C99.622,104.729,99.27,104.851,98.919,104.851z        M107.149,95.469c-0.287,0-0.577-0.082-0.833-0.253c-0.688-0.461-0.873-1.393-0.413-2.081c1.12-1.674,2.139-3.438,3.029-5.243       c0.367-0.744,1.267-1.046,2.009-0.683c0.743,0.367,1.049,1.267,0.683,2.009c-0.949,1.924-2.034,3.803-3.227,5.585       C108.108,95.235,107.633,95.469,107.149,95.469z M112.667,84.278c-0.159,0-0.321-0.025-0.48-0.079       c-0.785-0.266-1.206-1.116-0.94-1.901c0.646-1.91,1.169-3.879,1.556-5.852c0.158-0.813,0.944-1.35,1.76-1.184       c0.813,0.159,1.343,0.947,1.184,1.76c-0.411,2.103-0.969,4.201-1.657,6.236C113.876,83.885,113.293,84.278,112.667,84.278z"/></g><g><path class="st205" d="M115.076,71.998c-0.031,0-0.062-0.001-0.094-0.003c-0.827-0.052-1.456-0.763-1.404-1.59       c0.06-0.961,0.09-1.938,0.09-2.906c0-0.828,0.672-1.5,1.5-1.5s1.5,0.672,1.5,1.5c0,1.029-0.032,2.069-0.096,3.092       C116.523,71.386,115.862,71.998,115.076,71.998z"/></g></g></g></g><g><g><circle class="st151" cx="82.59" cy="46.52" r="14.205"/></g><g><ellipse class="st141" cx="82.59" cy="46.52" rx="14.205" ry="10.881"/></g><g><path class="st188" d="M68.385,46.52c0,7.846,6.359,14.205,14.205,14.205c7.844,0,14.205-6.359,14.205-14.205H68.385z"/></g><g><path class="st232" d="M82.59,57.4c7.844,0,14.205-4.871,14.205-10.881h-28.41C68.385,52.529,74.744,57.4,82.59,57.4z"/></g><g><path class="st205" d="M82.59,62.225c-8.66,0-15.705-7.045-15.705-15.705c0-8.659,7.045-15.704,15.705-15.704     S98.295,37.86,98.295,46.52C98.295,55.18,91.25,62.225,82.59,62.225z M82.59,33.815c-7.006,0-12.705,5.699-12.705,12.704     c0,7.006,5.699,12.705,12.705,12.705s12.705-5.699,12.705-12.705C95.295,39.515,89.596,33.815,82.59,33.815z"/></g><g><path class="st205" d="M96.795,48.02h-28.41c-0.828,0-1.5-0.672-1.5-1.5s0.672-1.5,1.5-1.5h28.41c0.828,0,1.5,0.672,1.5,1.5     S97.623,48.02,96.795,48.02z"/></g><g><g><circle class="st247" cx="82.589" cy="48.147" r="4.697"/></g><g><circle class="st188" cx="82.589" cy="46.55" r="4.697"/></g><g><path class="st232" d="M79.268,49.871c-1.834-1.833-1.834-4.809,0-6.643c1.836-1.834,4.809-1.834,6.643,0"/></g><g><path class="st205" d="M82.59,52.747c-1.655,0-3.211-0.645-4.383-1.814c-1.17-1.171-1.814-2.727-1.814-4.383      c0-1.655,0.644-3.212,1.814-4.382c1.172-1.171,2.728-1.814,4.383-1.814c1.654,0,3.211,0.644,4.381,1.814      c1.171,1.17,1.815,2.727,1.815,4.382c0,1.656-0.646,3.212-1.815,4.382C85.801,52.103,84.244,52.747,82.59,52.747z M82.59,43.354      c-0.854,0-1.657,0.332-2.262,0.937c-0.604,0.603-0.936,1.406-0.936,2.26c0,0.854,0.332,1.657,0.936,2.261      c1.209,1.206,3.314,1.208,4.521,0c0.604-0.604,0.937-1.406,0.937-2.261c0-0.854-0.333-1.657-0.937-2.261      S83.443,43.354,82.59,43.354z"/></g></g></g><g><path class="st205" d="M82.59,73.93c-0.828,0-1.5-0.672-1.5-1.5V60.725c0-0.828,0.672-1.5,1.5-1.5s1.5,0.672,1.5,1.5V72.43    C84.09,73.258,83.418,73.93,82.59,73.93z"/></g></g></svg>