<?xml version="1.0" ?><svg clip-rule="evenodd" fill-rule="evenodd" image-rendering="optimizeQuality" shape-rendering="geometricPrecision" text-rendering="geometricPrecision" viewBox="0 0 500 500" xmlns="http://www.w3.org/2000/svg"><defs><linearGradient gradientUnits="userSpaceOnUse" id="a" x1="439.997" x2="62.165" y1="214.987" y2="214.987"><stop offset="0" stop-color="#008BFF"/><stop offset="1" stop-color="#0af"/></linearGradient><linearGradient gradientUnits="userSpaceOnUse" id="b" x1="112.972" x2="262.47" y1="136.084" y2="293.89"><stop offset="0" stop-color="#008BFF"/><stop offset="1" stop-color="#4EAFFF"/></linearGradient></defs><g><path d="M72 100h358c6 0 10 4 10 10v210c0 5-4 10-10 10h-358c-5 0-10-5-10-10v-210c0-6 5-10 10-10z" fill="url(#a)"/><path d="M72 100h241v4c0 98-56 184-138 226h-103c-5 0-10-5-10-10v-210c0-6 5-10 10-10z" fill="url(#b)"/><path d="M125 400h75v-35h100v35h75c8 0 15 7 15 15v5h-280v-5c0-8 7-15 15-15z" fill="#434242"/><path d="M72 100h358c6 0 10 4 10 10v210c0 5-4 10-10 10h-358c-5 0-10-5-10-10v-210c0-6 5-10 10-10zm-12-20h380c11 0 20 9 20 20v250c0 11-9 20-20 20h-380c-11 0-20-9-20-20v-250c0-11 9-20 20-20z" fill="#434242"/><path d="M220 343h60c3 0 5 2 5 5v5c0 2-2 5-5 5h-60c-3 0-5-3-5-5v-5c0-3 2-5 5-5z" fill="#279DFF"/><circle cx="410" cy="350" fill="#279DFF" r="10"/></g></svg>