<?xml version="1.0" ?><!DOCTYPE svg  PUBLIC '-//W3C//DTD SVG 1.1//EN'  'http://www.w3.org/Graphics/SVG/1.1/DTD/svg11.dtd'><svg height="512px" id="Layer_1" style="enable-background:new 0 0 512 512;" version="1.1" viewBox="0 0 512 512" width="512px" xml:space="preserve" xmlns="http://www.w3.org/2000/svg" xmlns:xlink="http://www.w3.org/1999/xlink"><g><path d="M512.403,255.924c0,141.387-114.623,256-256.005,256S0.403,397.311,0.403,255.924   c0-141.382,114.613-256,255.995-256S512.403,114.542,512.403,255.924z" style="fill:#212121;"/><path d="M467.381,255.924c0,116.521-94.466,210.978-210.982,210.978S45.426,372.445,45.426,255.924   c0-116.517,94.456-210.978,210.972-210.978S467.381,139.407,467.381,255.924z" style="fill:#1A237E;"/><path d="M384.188,255.924c0,70.575-57.214,127.784-127.789,127.784c-70.57,0-127.779-57.209-127.779-127.784   c0-70.57,57.209-127.784,127.779-127.784C326.974,128.14,384.188,185.354,384.188,255.924z" style="fill:#1565C0;"/><g><g><path d="M293.743,420.954c0,20.622-16.713,37.335-37.335,37.335c-20.631,0-37.344-16.713-37.344-37.335     c0-20.631,16.713-37.344,37.344-37.344C277.03,383.61,293.743,400.323,293.743,420.954z" style="fill:#BDBDBD;"/><g><path d="M256.482,270.399l12.247,21.438h0.019l0.009,117.947h-24.688l-0.009-117.919l0,0v-0.019v-0.01      h0.009L256.482,270.399 M256.482,260.892c-3.398,0-6.527,1.811-8.227,4.744l-12.414,21.439      c-0.325,0.548-0.594,1.133-0.789,1.745c-0.334,0.975-0.501,2.015-0.501,3.046l0.009,117.919c0,5.245,4.252,9.508,9.508,9.508      h24.688c2.517,0,4.939-1.003,6.723-2.786c1.782-1.782,2.785-4.206,2.785-6.722l-0.009-117.947c0-1.903-0.566-3.705-1.561-5.209      l-11.959-20.946c-1.689-2.953-4.828-4.782-8.226-4.791C256.501,260.892,256.492,260.892,256.482,260.892L256.482,260.892z" style="fill:#FFFFFF;"/><rect height="20.343" style="fill:#B3E5FC;" width="24.689" x="244.059" y="318.087"/><polygon points="268.748,291.838 268.729,291.838 256.482,270.399 244.068,291.838 244.059,291.838       244.059,291.848 244.059,291.866 244.059,291.866 244.059,297.558 268.748,297.558     " style="fill:#B3E5FC;"/><rect height="9.973" style="fill:#E0F7FA;" width="24.688" x="244.068" y="399.813"/><polygon points="244.068,379.293 268.757,379.293 268.748,358.949 244.059,358.949     " style="fill:#B3E5FC;"/><rect height="20.529" style="fill:#E0F7FA;" width="24.689" x="244.059" y="297.558"/><rect height="20.52" style="fill:#E0F7FA;" width="24.689" x="244.059" y="338.43"/><rect height="20.52" style="fill:#E0F7FA;" width="24.688" x="244.068" y="379.293"/></g><path d="M276.222,420.954c0,10.938-8.867,19.814-19.823,19.814c-10.947,0-19.814-8.876-19.814-19.814     c0-10.946,8.867-19.823,19.814-19.823C267.354,401.131,276.222,410.008,276.222,420.954z" style="fill:#D32F2F;"/></g><g><g><path d="M345.757,121.542c14.587-14.577,38.217-14.577,52.804,0c14.587,14.587,14.587,38.227,0,52.804      c-14.587,14.586-38.217,14.586-52.804,0C331.17,159.769,331.17,136.129,345.757,121.542z" style="fill:#BDBDBD;"/><g><path d="M265.646,254.345l6.499-23.816l-0.009-0.019l83.388-83.397l17.466,17.456l-83.379,83.388l0,0       l-0.01,0.009l-0.009,0.009h-0.01L265.646,254.345 M258.924,261.077c2.405,2.396,5.896,3.333,9.174,2.46l23.937-6.379       c0.622-0.167,1.217-0.39,1.792-0.677c0.919-0.455,1.783-1.077,2.507-1.801l83.379-83.388c3.714-3.714,3.714-9.73,0-13.445       l-17.455-17.456c-1.783-1.783-4.206-2.786-6.732-2.786c-2.516,0-4.939,1.003-6.722,2.786l-83.389,83.397       c-1.355,1.355-2.219,3.027-2.59,4.791l-6.342,23.268c-0.901,3.278,0.028,6.797,2.423,9.201       C258.915,261.059,258.924,261.067,258.924,261.077L258.924,261.077z" style="fill:#FFFFFF;"/><rect height="24.692" style="fill:#B3E5FC;" transform="matrix(-0.7069 0.7073 -0.7073 -0.7069 674.358 147.5206)" width="20.346" x="296.439" y="201.145"/><polygon points="272.137,230.511 272.146,230.529 265.646,254.345 289.583,247.976 289.593,247.976        289.602,247.967 289.611,247.958 289.611,247.958 293.641,243.928 276.176,226.472      " style="fill:#B3E5FC;"/><polygon points="372.99,164.569 355.524,147.113 348.478,154.161 365.942,171.616      " style="fill:#E0F7FA;"/><polygon points="351.421,186.129 333.965,168.673 319.583,183.065 337.038,200.521      " style="fill:#B3E5FC;"/><polygon points="276.176,226.472 293.641,243.928 308.153,229.415 290.688,211.959      " style="fill:#E0F7FA;"/><polygon points="337.038,200.521 319.583,183.065 305.07,197.568 322.535,215.023      " style="fill:#E0F7FA;"/><polygon points="365.942,171.616 348.478,154.161 333.965,168.673 351.421,186.129      " style="fill:#E0F7FA;"/></g><path d="M358.144,133.929c7.743-7.734,20.287-7.734,28.031,0.009c7.743,7.734,7.743,20.288,0,28.022      c-7.734,7.744-20.288,7.744-28.031,0.009C350.399,154.226,350.409,141.672,358.144,133.929z" style="fill:#D32F2F;"/></g><g><path d="M167.041,121.542c-14.578-14.577-38.217-14.577-52.797,0c-14.582,14.587-14.582,38.227,0,52.804      c14.58,14.586,38.219,14.586,52.806,0C181.627,159.769,181.627,136.129,167.041,121.542z" style="fill:#BDBDBD;"/><g><path d="M247.151,254.345l-23.937-6.369l0,0l-0.009-0.009l-0.009-0.009l0,0l-83.379-83.388       l17.456-17.456l83.397,83.397l-0.009,0.019L247.151,254.345 M253.873,261.077c0.009-0.01,0.019-0.019,0.019-0.028       c2.405-2.404,3.324-5.923,2.433-9.201l-6.351-23.268c-0.362-1.764-1.235-3.436-2.582-4.791l-83.397-83.397       c-1.783-1.783-4.197-2.786-6.722-2.786c-2.516,0-4.939,1.003-6.722,2.786l-17.456,17.456c-3.714,3.714-3.714,9.731,0,13.445       l83.378,83.388c0.725,0.724,1.588,1.346,2.507,1.801c0.566,0.288,1.17,0.511,1.792,0.677l23.937,6.379       C247.986,264.41,251.478,263.473,253.873,261.077L253.873,261.077z" style="fill:#FFFFFF;"/><polygon points="204.654,229.415 190.271,215.023 207.727,197.568 222.109,211.959      " style="fill:#B3E5FC;"/><polygon points="240.67,230.511 240.661,230.529 247.151,254.345 223.214,247.976 223.214,247.976        223.205,247.967 223.196,247.958 223.196,247.958 219.166,243.928 236.622,226.472      " style="fill:#B3E5FC;"/><rect height="9.966" style="fill:#E0F7FA;" transform="matrix(-0.7071 0.7071 -0.7071 -0.7071 372.2851 164.5214)" width="24.686" x="139.725" y="154.382"/><polygon points="161.376,186.129 178.832,168.673 193.224,183.065 175.759,200.521      " style="fill:#B3E5FC;"/><rect height="20.524" style="fill:#E0F7FA;" transform="matrix(0.7071 -0.7071 0.7071 0.7071 -96.5571 222.7819)" width="24.686" x="208.295" y="217.682"/><polygon points="175.759,200.521 193.224,183.065 207.727,197.568 190.271,215.023      " style="fill:#E0F7FA;"/><rect height="20.523" style="fill:#E0F7FA;" transform="matrix(-0.7071 0.7071 -0.7071 -0.7071 398.3095 175.3039)" width="24.686" x="150.505" y="159.883"/></g><path d="M154.664,133.929c-7.744-7.734-20.288-7.734-28.031,0.009c-7.746,7.734-7.741,20.288,0,28.022      c7.734,7.744,20.288,7.744,28.031,0.009C162.407,154.226,162.398,141.672,154.664,133.929z" style="fill:#D32F2F;"/></g></g><path d="M262.155,259.071c0,3.027-2.414,5.479-5.395,5.479c-2.985,0-5.404-2.451-5.404-5.479    c0-3.027,2.419-5.478,5.404-5.478C259.741,253.593,262.155,256.044,262.155,259.071z" style="fill:#FFFFFF;"/></g></g></svg>