<?xml version="1.0" ?><svg style="enable-background:new 0 0 96 96;" version="1.1" viewBox="0 0 96 96" xml:space="preserve" xmlns="http://www.w3.org/2000/svg" xmlns:xlink="http://www.w3.org/1999/xlink"><g id="Layer_2"><g id="XMLID_426_"><path d="M48.368,30.036h-0.783c-2.156,0-3.903-1.748-3.903-3.903V13.065    c0-2.156,1.748-3.903,3.903-3.903h0.783c2.156,0,3.903,1.748,3.903,3.903v13.067C52.271,28.289,50.523,30.036,48.368,30.036z" id="XMLID_449_" style="fill:#00557E;"/><path d="M47.976,31.198c-3.009,0-5.457-2.448-5.457-5.457V13.457    c0-3.009,2.448-5.457,5.457-5.457c3.009,0,5.457,2.448,5.457,5.457v12.284C53.433,28.75,50.985,31.198,47.976,31.198z     M47.976,10.324c-1.728,0-3.133,1.405-3.133,3.133v12.284c0,1.728,1.406,3.133,3.133,3.133c1.728,0,3.133-1.405,3.133-3.133    V13.457C51.109,11.729,49.704,10.324,47.976,10.324z" id="XMLID_450_" style="fill:#004363;"/><circle cx="48" cy="29.842" id="XMLID_440_" r="8.654" style="fill:#F8CB00;"/><path d="M48,39.851c-5.519,0-10.009-4.49-10.009-10.009S42.481,19.832,48,19.832    s10.009,4.49,10.009,10.009S53.519,39.851,48,39.851z M48,22.543c-4.024,0-7.298,3.274-7.298,7.298S43.976,37.14,48,37.14    s7.298-3.274,7.298-7.298S52.024,22.543,48,22.543z" id="XMLID_445_" style="fill:#004363;"/><path d="M76.402,58.244c0,2.091-0.225,4.129-0.658,6.088    c-2.785,12.761-14.148,22.312-27.742,22.312c-5.333,0-10.321-1.472-14.585-4.028c-2.208-1.321-4.221-2.94-5.988-4.795    c-1.425-1.495-2.692-3.145-3.764-4.926c-2.064-3.42-3.428-7.312-3.888-11.475c-0.12-1.042-0.178-2.103-0.178-3.176    c0-15.685,12.719-28.404,28.404-28.404c8.788,0,16.642,3.993,21.851,10.259c2.56,3.079,4.481,6.712,5.558,10.689    c0.38,1.383,0.651,2.808,0.813,4.264C76.34,56.099,76.402,57.164,76.402,58.244z" id="XMLID_456_" style="fill:#002F46;"/><g id="XMLID_427_"><path d="M48,82.32c-13.276,0-24.077-10.801-24.077-24.076     c0-13.276,10.801-24.077,24.077-24.077s24.077,10.801,24.077,24.077C72.077,71.519,61.276,82.32,48,82.32z M48,35.328     c-12.635,0-22.915,10.28-22.915,22.915c0,12.635,10.279,22.915,22.915,22.915c12.635,0,22.915-10.28,22.915-22.915     C70.915,45.608,60.635,35.328,48,35.328z" id="XMLID_430_" style="fill:#006A9D;"/></g><polygon id="XMLID_468_" points="49.449,50.489 48,42.59 46.551,50.483 45.103,58.375 46.551,66.283     48,74.191 49.449,66.282 50.898,58.375   " style="fill:#AAD9E8;"/><polygon id="XMLID_467_" points="55.902,59.839 63.8,58.39 55.908,56.942 48.015,55.493 40.107,56.942     32.2,58.39 40.109,59.839 48.015,61.288   " style="fill:#AAD9E8;"/><polygon id="XMLID_466_" points="63.687,74.077 54.396,67.663 45.108,61.254 45.07,61.199 38.71,51.978     32.316,42.706 41.596,49.108 50.86,55.498 50.926,55.591 57.273,64.786   " style="fill:#00557E;"/><polygon id="XMLID_465_" points="63.687,74.077 54.396,67.663 45.108,61.254 45.07,61.199 50.926,55.591     57.273,64.786   " style="fill:#E80029;"/><polygon id="XMLID_464_" points="51.799,55.769 54.42,51.97 50.624,54.589 46.829,57.207 44.205,61.009     41.58,64.81 45.382,62.185 49.183,59.561   " style="fill:#AAD9E8;"/><circle cx="48" cy="58.243" id="XMLID_432_" r="2.598" style="fill:#006A9D;"/><path d="M48,62.197c-2.18,0-3.954-1.773-3.954-3.953c0-2.18,1.774-3.954,3.954-3.954    c2.18,0,3.954,1.774,3.954,3.954C51.954,60.423,50.18,62.197,48,62.197z M48,57c-0.685,0-1.243,0.557-1.243,1.243    c0,0.685,0.557,1.242,1.243,1.242c0.685,0,1.243-0.557,1.243-1.242C49.243,57.558,48.685,57,48,57z" id="XMLID_436_" style="fill:#004363;"/><circle cx="48.956" cy="12.454" id="XMLID_428_" r="1.138" style="fill:#AAD9E8;"/><path d="M49.06,18.602h-0.208c-0.571,0-1.034-0.463-1.034-1.034V15.4    c0-0.571,0.463-1.034,1.034-1.034h0.208c0.571,0,1.034,0.463,1.034,1.034v2.168C50.094,18.139,49.631,18.602,49.06,18.602z" id="XMLID_429_" style="fill:#AAD9E8;"/><path d="M75.41,50.789L23.664,72.896c-2.064-3.42-3.428-7.312-3.888-11.475    L69.853,40.1C72.413,43.179,74.334,46.811,75.41,50.789z" id="XMLID_444_" style="opacity:0.25;fill:#AAD9E8;"/><path d="M76.402,58.244c0,2.091-0.225,4.129-0.658,6.088L33.416,82.617    c-2.208-1.321-4.221-2.94-5.988-4.795l48.795-22.769C76.34,56.099,76.402,57.164,76.402,58.244z" id="XMLID_439_" style="opacity:0.25;fill:#AAD9E8;"/><path d="M48,88c-16.408,0-29.757-13.349-29.757-29.757S31.592,28.486,48,28.486    c16.408,0,29.757,13.349,29.757,29.757S64.408,88,48,88z M48,31.197c-14.913,0-27.046,12.133-27.046,27.046    c0,14.913,12.133,27.046,27.046,27.046c14.913,0,27.046-12.133,27.046-27.046C75.046,43.33,62.913,31.197,48,31.197z" id="XMLID_441_" style="fill:#004363;"/></g></g></svg>