<?xml version="1.0" ?><svg clip-rule="evenodd" fill-rule="evenodd" image-rendering="optimizeQuality" shape-rendering="geometricPrecision" text-rendering="geometricPrecision" viewBox="0 0 500 500" xmlns="http://www.w3.org/2000/svg"><defs><linearGradient gradientUnits="userSpaceOnUse" id="a" x1="258.196" x2="193.568" y1="240.981" y2="307.251"><stop offset="0" stop-color="#008BFF"/><stop offset="1" stop-color="#0af"/></linearGradient></defs><g><path d="M250 250l99 99c2 2 3 4 3 7s-2 5-4 7c-27 24-62 37-98 37-83 0-150-67-150-150 0-36 13-71 37-98 2-2 4-4 7-4s5 1 7 3l99 99z" fill="url(#a)"/><path d="M70 430h30l19-106c17 29 42 52 73 65l8 41h30c5 0 10 5 10 10v30h-180v-30c0-5 5-10 10-10z" fill="#434242"/><g fill="none" stroke="#434242" stroke-linecap="round" stroke-linejoin="round" stroke-width="10"><polyline points="299,300 324,176 199,200"/><line x1="324" x2="250" y1="176" y2="250"/></g><path d="M271 29c110 0 200 89 200 200m-200-170c94 0 170 76 170 170m-170-140c77 0 140 63 140 140" fill="none" stroke="#434242" stroke-linecap="round" stroke-width="15"/><circle cx="325" cy="175" fill="#434242" r="15"/><path d="M142 355c0-28 26-113 66-147l-25-25c-28 36-45 97-45 129 0 5 0 38 4 43z" fill="#76C1FF"/><path d="M250 250l99 99c2 2 3 4 3 7s-2 5-4 7c-27 24-62 37-98 37-83 0-150-67-150-150 0-36 13-71 37-98 2-2 4-4 7-4s5 1 7 3l99 99z" fill="none" stroke="#434242" stroke-width="10"/></g></svg>