<?xml version="1.0" ?><svg viewBox="0 0 128 128" xmlns="http://www.w3.org/2000/svg"><defs><style>.cls-1{fill:#48b749;}.cls-2{fill:#5bc9e1;}.cls-3{fill:#f8991d;}.cls-4{fill:#314967;}</style></defs><title/><g data-name="10 Delivery" id="_10_Delivery"><path class="cls-1" d="M112,66.54V88H76V40c10.06,0,11.49-.46,13.7,1.76C111.79,63.84,112,63.19,112,66.54Z"/><path class="cls-2" d="M83.25,69.07H112c0-6.27,1.59-3.43-16-21H83.25Z"/><path class="cls-1" d="M16,88h96a0,0,0,0,1,0,0v6a6,6,0,0,1-6,6H22a6,6,0,0,1-6-6V88A0,0,0,0,1,16,88Z"/><path class="cls-3" d="M22,28H70a6,6,0,0,1,6,6V88a0,0,0,0,1,0,0H16a0,0,0,0,1,0,0V34A6,6,0,0,1,22,28Z"/><path class="cls-2" d="M47.94,100A7.94,7.94,0,1,1,40,92.06,7.94,7.94,0,0,1,47.94,100ZM89,92.06A7.94,7.94,0,1,0,96.94,100,7.94,7.94,0,0,0,89,92.06Z"/><path class="cls-4" d="M26.79,98H22a4,4,0,0,1-4-4V90H35.95a2,2,0,0,0,0-4H18V82a2,2,0,0,0-4,0V94a8,8,0,0,0,8,8h4.79A2,2,0,0,0,26.79,98Z"/><path class="cls-4" d="M55.64,98h-5.9a9.94,9.94,0,1,0,0,4h5.9A2,2,0,0,0,55.64,98ZM40,105.94A5.94,5.94,0,1,1,45.94,100,6,6,0,0,1,40,105.94Z"/><path class="cls-4" d="M18,76V34a4,4,0,0,1,4-4H70a4,4,0,0,1,4,4,2,2,0,0,0,4,0,8,8,0,0,0-8-8H22a8,8,0,0,0-8,8V76A2,2,0,0,0,18,76Z"/><path class="cls-4" d="M42.71,90H65.18a2,2,0,0,0,0-4H42.71A2,2,0,0,0,42.71,90Z"/><path class="cls-4" d="M111.66,60.88C89.18,38.41,89.75,38,85.46,38H76a2,2,0,0,0-2,2V86H71.29a2,2,0,0,0,0,4H110v4a4,4,0,0,1-4,4h-3a2,2,0,0,0,0,4h3a8,8,0,0,0,8-8C114,64.54,114.77,64,111.66,60.88ZM110,67.07H85.25v-17h9.92C110.81,65.7,110,64.07,110,67.07ZM78,86V42c10.33,0,8.29-.82,13.17,4.06H83.25a2,2,0,0,0-2,2v21a2,2,0,0,0,2,2H110V86Z"/><path class="cls-4" d="M89,90.06A10,10,0,0,0,79.26,98h-18a2,2,0,0,0,0,4h18A9.94,9.94,0,1,0,89,90.06Zm0,15.89A5.94,5.94,0,1,1,94.94,100,6,6,0,0,1,89,105.94Z"/><path class="cls-4" d="M23.94,37.75V78.24a2,2,0,0,0,4,0V37.75A2,2,0,0,0,23.94,37.75Z"/><path class="cls-4" d="M33.94,37.75V78.24a2,2,0,0,0,4,0V37.75A2,2,0,0,0,33.94,37.75Z"/><path class="cls-4" d="M47.94,78.24V37.75a2,2,0,0,0-4,0V78.24A2,2,0,0,0,47.94,78.24Z"/><path class="cls-4" d="M57.94,78.24V37.75a2,2,0,0,0-4,0V78.24A2,2,0,0,0,57.94,78.24Z"/><path class="cls-4" d="M67.94,78.24V37.75a2,2,0,0,0-4,0V78.24A2,2,0,0,0,67.94,78.24Z"/></g></svg>